<?xml version="1.0" encoding="UTF-8" standalone="no"?>
<!-- Created with Inkscape (http://www.inkscape.org/) -->

<svg
   xmlns:dc="http://purl.org/dc/elements/1.1/"
   xmlns:cc="http://creativecommons.org/ns#"
   xmlns:rdf="http://www.w3.org/1999/02/22-rdf-syntax-ns#"
   xmlns:svg="http://www.w3.org/2000/svg"
   xmlns="http://www.w3.org/2000/svg"
   xmlns:sodipodi="http://sodipodi.sourceforge.net/DTD/sodipodi-0.dtd"
   xmlns:inkscape="http://www.inkscape.org/namespaces/inkscape"
   id="svg3406"
   version="1.1"
   inkscape:version="0.91 r13725"
   width="171.15044"
   height="639.83258"
   viewBox="0 0 171.15044 639.83258"
   sodipodi:docname="silhouette-femme-41.svg">
  <title
     id="title3340">Silhouette Femme 41</title>
  <metadata
     id="metadata3412">
    <rdf:RDF>
      <cc:Work
         rdf:about="">
        <dc:format>image/svg+xml</dc:format>
        <dc:type
           rdf:resource="http://purl.org/dc/dcmitype/StillImage" />
        <dc:title>Silhouette Femme 41</dc:title>
        <cc:license
           rdf:resource="http://creativecommons.org/publicdomain/zero/1.0/" />
        <dc:date>2017-03-04</dc:date>
        <dc:creator>
          <cc:Agent>
            <dc:title>JLouis</dc:title>
          </cc:Agent>
        </dc:creator>
        <dc:rights>
          <cc:Agent>
            <dc:title>Domaine pubic</dc:title>
          </cc:Agent>
        </dc:rights>
        <dc:publisher>
          <cc:Agent>
            <dc:title>inkscape</dc:title>
          </cc:Agent>
        </dc:publisher>
        <dc:subject>
          <rdf:Bag>
            <rdf:li>Silhouette</rdf:li>
            <rdf:li>woman</rdf:li>
            <rdf:li>femme</rdf:li>
          </rdf:Bag>
        </dc:subject>
        <dc:description>Woman in silhouette - Femme en silhouette</dc:description>
      </cc:Work>
      <cc:License
         rdf:about="http://creativecommons.org/publicdomain/zero/1.0/">
        <cc:permits
           rdf:resource="http://creativecommons.org/ns#Reproduction" />
        <cc:permits
           rdf:resource="http://creativecommons.org/ns#Distribution" />
        <cc:permits
           rdf:resource="http://creativecommons.org/ns#DerivativeWorks" />
      </cc:License>
    </rdf:RDF>
  </metadata>
  <defs
     id="defs3410" />
  <sodipodi:namedview
     pagecolor="#ffffff"
     bordercolor="#666666"
     borderopacity="1"
     objecttolerance="10"
     gridtolerance="10"
     guidetolerance="10"
     inkscape:pageopacity="0"
     inkscape:pageshadow="2"
     inkscape:window-width="1237"
     inkscape:window-height="756"
     id="namedview3408"
     showgrid="false"
     fit-margin-top="0"
     fit-margin-left="0"
     fit-margin-right="0"
     fit-margin-bottom="0"
     inkscape:zoom="0.8828125"
     inkscape:cx="66.358963"
     inkscape:cy="326.6652"
     inkscape:window-x="0"
     inkscape:window-y="0"
     inkscape:window-maximized="1"
     inkscape:current-layer="svg3406" />
  <g
     id="g3416"
     transform="translate(-0.00940537,-0.03613964)">
    <path
       style="fill:#fce7e7"
       d="m 86.25,638.75 c -1.71875,-0.55044 -5.234375,-1.05688 -7.8125,-1.1254 -2.578125,-0.0685 -4.6875,-0.6871 -4.6875,-1.3746 0,-0.72416 -4.075261,-1.25805 -9.6875,-1.26914 -10.204493,-0.0201 -10.793257,-0.20815 -14.547515,-4.64491 -1.634884,-1.9321 -1.982991,-3.27635 -1.132953,-4.375 0.674884,-0.87228 2.18703,-5.2422 3.360324,-9.71095 1.173294,-4.46875 2.742758,-9.53125 3.487698,-11.25 0.74494,-1.71875 1.810218,-4.25 2.367286,-5.625 0.557067,-1.375 1.307719,-6.4375 1.668114,-11.25 1.002581,-13.38788 2.634715,-22.11994 4.906456,-26.25 1.134479,-2.0625 2.066154,-4.70118 2.070389,-5.86373 0.0042,-1.16254 0.570201,-2.46137 1.257701,-2.88627 1.566963,-0.96844 1.638987,-9.92269 0.1032,-12.82946 -4.191789,-7.93374 -7.603969,-15.4838 -7.608428,-16.83503 -0.0029,-0.87204 -1.403946,-4.34249 -3.113486,-7.71211 C 53.838785,509.7514 50,494.412 50,488.25148 c 0,-1.70717 -0.5625,-3.45158 -1.25,-3.87648 -0.774701,-0.47879 -1.2539,-11.79518 -1.260256,-29.76127 -0.01038,-29.41949 -1.594584,-51.14862 -3.784199,-51.90539 -0.66305,-0.22918 -1.223435,-1.63543 -1.245299,-3.125 -0.02186,-1.48959 -0.760761,-3.65683 -1.64199,-4.81609 -1.480058,-1.94702 -1.882126,-1.87896 -5.272746,0.89255 -4.503876,3.68149 -6.983136,3.83596 -9.896619,0.6166 -1.923137,-2.12504 -2.048397,-3.22591 -0.888937,-7.8125 1.999562,-7.90986 3.154561,-45.83329 1.458156,-47.87732 -0.809752,-0.97569 -1.795166,-12.03803 -2.410107,-27.05607 -1.06017,-25.89137 -1.4394,-28.38701 -5.026053,-33.07547 -1.123379,-1.46848 -3.109022,-6.95285 -4.412541,-12.1875 C 13.06589,263.03289 11.598958,258.75 11.10956,258.75 c -0.489399,0 -1.2777179,-2.29598 -1.7518208,-5.10216 -0.474103,-2.8062 -1.64508,-6.60308 -2.6021713,-8.4375 -0.9570913,-1.83444 -1.7436315,-4.83534 -1.747867,-6.66868 -0.00424,-1.83332 -0.5385205,-3.52082 -1.1873002,-3.75 -2.4295947,-0.8582 -3.80180614,-17.584 -3.810958,-46.45155 C -2.3305691e-4,157.8201 1.872569,128.45076 3.8757649,127.70834 4.4940942,127.47916 5,126.39382 5,125.29645 c 0,-3.14416 5.229571,-18.21094 7.078914,-20.39488 0.919097,-1.08538 1.671086,-2.89074 1.671086,-4.01191 0,-1.121168 1.503829,-3.432916 3.341841,-5.137218 2.346246,-2.175562 2.992063,-3.587123 2.167764,-4.738086 -0.645741,-0.901646 -1.156369,-2.537712 -1.134726,-3.635702 0.03902,-1.980148 4.296692,-8.19619 8.369381,-12.219013 1.769835,-1.748165 2.241841,-5.72819 2.862715,-24.138816 0.663302,-19.66877 1.05376,-22.658436 3.621706,-27.730778 3.900228,-7.703933 5.343895,-9.247531 9.503266,-10.161082 1.957562,-0.429952 3.86979,-1.591109 4.249397,-2.580348 C 47.110951,9.5593774 48.282942,8.75 49.335769,8.75 50.388596,8.75 51.25,8.2015589 51.25,7.5312419 c 0,-0.6703171 2.550869,-2.3808135 5.668597,-3.8011031 7.343462,-3.34533321 20.423619,-4.61656289 25.569558,-2.4850452 4.976215,2.061216 11.239374,8.4253984 14.315882,14.5467964 1.335972,2.65821 3.629683,6.52061 5.097133,8.58311 4.84509,6.809774 6.96639,12.390982 8.10304,21.319332 0.61752,4.850633 1.76004,10.475633 2.53894,12.5 0.80894,2.102474 1.08675,6.212178 0.6479,9.584663 -0.72327,5.558159 -0.58214,5.950709 2.40919,6.701486 3.21791,0.807644 9.47152,8.019519 6.95394,8.019519 -0.75133,0 -1.8809,1.354148 -2.51016,3.009218 -0.71556,1.882059 -2.5292,3.313433 -4.84194,3.821398 -2.1733,0.477338 -3.95968,1.813443 -4.33294,3.240783 C 110.41292,94.315983 109.1449,95 106.36702,95 104.24016,95 102.5,95.5625 102.5,96.25 c 0,0.6875 0.5625,1.25 1.25,1.25 2.30906,0 1.2775,2.72686 -1.28505,3.39698 -5.242074,1.37083 0.62359,9.66635 5.97255,8.44669 1.54688,-0.35271 2.8125,-0.15812 2.8125,0.43244 0,0.59056 2.39063,1.81244 5.3125,2.71529 2.92188,0.90285 6.22265,2.65103 7.33506,3.88486 1.1124,1.23382 3.49071,2.6118 5.28512,3.06217 5.22854,1.31228 7.06732,6.71545 7.06732,20.76707 0,6.77677 -0.82139,17.51849 -1.82531,23.87046 -3.67527,23.25384 -1.60088,75.1194 3.2091,80.23654 0.61391,0.65312 1.11621,2.44805 1.11621,3.98872 0,1.54068 0.50397,3.11272 1.11995,3.4934 0.61597,0.38071 1.79907,5.47639 2.62911,11.32378 0.83004,5.84737 1.93219,10.6316 2.44924,10.6316 0.51704,0 1.91427,4.50891 3.10498,10.0198 1.19069,5.5109 2.92472,10.77963 3.85339,11.7083 1.6335,1.6335 4.49609,11.44497 6.15158,21.0844 0.44276,2.57812 1.20866,4.6875 1.70198,4.6875 0.88962,0 1.63739,1.17664 5.22519,8.22179 1.02323,2.00926 2.48879,4.3152 3.2568,5.1243 0.76802,0.8091 1.79104,5.82627 2.2734,11.14928 0.83996,9.26922 0.74424,9.80133 -2.26475,12.59142 -1.72797,1.60227 -4.25811,2.91321 -5.62255,2.91321 -1.36442,0 -2.81935,0.54781 -3.23315,1.21736 -0.41381,0.66955 -2.9996,1.09143 -5.7462,0.9375 -4.01363,-0.22494 -5.13377,-0.83189 -5.7069,-3.09236 -0.39219,-1.54688 -1.49586,-2.8125 -2.45258,-2.8125 -1.29079,0 -1.73949,-1.91559 -1.73949,-7.42623 0,-4.28601 -0.61324,-7.80523 -1.45023,-8.32252 -2.13644,-1.3204 -0.53023,37.34285 1.83678,44.21315 2.68627,7.79696 0.81164,8.73325 -10.40063,5.1946 -7.64064,-2.41143 -9.12429,-2.55634 -10.64124,-1.0394 -0.96949,0.96949 -2.6827,7.66731 -3.80713,14.88405 -1.12443,7.21675 -2.54913,13.65572 -3.16599,14.30885 C 115.5047,419.96563 115,423.0875 115,426.25 c 0,3.1625 -0.61903,6.36902 -1.37562,7.12561 -0.84,0.84 -1.78013,11.52319 -2.41452,27.4375 -0.99391,24.93305 -1.65302,30.78735 -3.77854,33.56189 -0.52668,0.6875 -1.37033,3.5 -1.87476,6.25 -0.50444,2.75 -1.26764,5.28125 -1.69599,5.625 -0.42836,0.34375 -1.41657,2.875 -2.19604,5.625 -0.77946,2.75 -2.690664,9.5 -4.247106,15 -1.556444,5.5 -3.29959,10.1875 -3.87366,10.41666 -1.475459,0.589 -1.301958,8.65123 0.206236,9.58334 0.6875,0.4249 1.253138,2.28623 1.256971,4.13627 0.01088,5.22796 2.261348,12.08908 5.001749,15.24878 1.3702,1.57986 2.49128,4.38016 2.49128,6.22288 0,1.84272 0.39128,3.74168 0.86951,4.21992 1.3133,1.3133 1.75102,4.1673 2.42282,15.79715 0.33756,5.84375 1.10763,11.75 1.71126,13.125 0.60364,1.375 1.99821,6.65162 3.09906,11.72582 2.59717,11.97125 1.6022,19.84802 -2.71446,21.48922 -3.6321,1.38091 -17.221687,1.32437 -21.63819,-0.09 z m -55.769989,-405 c 0.911709,-5.70151 -0.25976,-15 -1.889771,-15 -0.599632,0 -1.09024,-0.89063 -1.09024,-1.97916 0,-2.66778 -3.0104,-1.52994 -3.568339,1.34871 -0.756696,3.90413 2.715261,20.63045 4.282353,20.63045 0.806556,0 1.826255,-2.25 2.265997,-5 z"
       id="path3430"
       inkscape:connector-curvature="0" />
    <path
       style="fill:#fcd9d7"
       d="m 86.875,638.75 c -2.0625,-0.52481 -5.859375,-1.02076 -8.4375,-1.10211 -2.578125,-0.0813 -4.6875,-0.71039 -4.6875,-1.39789 0,-0.72139 -3.935099,-1.25 -9.305295,-1.25 -7.869321,0 -9.813844,-0.43744 -12.600751,-2.83464 l -3.295455,-2.83462 2.568962,-10.06164 c 1.41293,-5.5339 3.541498,-12.27394 4.73015,-14.97786 1.188653,-2.70394 2.584257,-9.13499 3.10134,-14.29124 1.823848,-18.187 2.986153,-24.40704 5.132361,-27.46564 1.192779,-1.69984 2.168688,-4.33852 2.168688,-5.86372 0,-1.5252 0.5625,-3.12074 1.25,-3.54564 1.504869,-0.93006 1.661071,-9.78738 0.226252,-12.82946 -0.563061,-1.1938 -2.531811,-5.12395 -4.375,-8.73369 C 61.508064,527.95211 60,524.39015 60,523.64636 c 0,-0.74377 -1.676158,-5.1713 -3.724794,-9.83894 C 50.715456,501.14005 48.77332,487.03305 48.179075,455 c -0.52144,-28.10856 -2.241405,-49.44224 -4.311834,-53.4821 -0.604031,-1.1786 -1.71911,-3.71151 -2.477955,-5.62871 l -1.379717,-3.48582 -4.669953,3.17332 c -5.6456,3.83628 -6.785745,3.90967 -9.755611,0.62801 -1.950658,-2.15545 -2.090053,-3.16059 -0.9101,-6.5625 2.015108,-5.80974 2.460214,-47.33789 0.605763,-56.5172 C 24.446314,329 23.761222,318.81115 23.75724,310.48311 23.74924,293.702 22.250055,283.32149 19.426801,280.49822 17.603824,278.67525 12.5,263.93519 12.5,260.49332 12.5,259.5345 11.986943,258.75 11.359872,258.75 c -0.62707,0 -1.5344189,-2.39063 -2.0163306,-5.3125 -0.4819119,-2.92188 -1.310151,-5.875 -1.8405315,-6.5625 -0.5303805,-0.6875 -1.3524795,-3.21875 -1.8268867,-5.625 -0.4744072,-2.40625 -1.7938551,-6.34375 -2.9321066,-8.75 -4.0394545,-8.53936 -3.26279847,-96.5494 0.9247679,-104.79396 0.5813504,-1.14456 2.326854,-6.29979 3.8788969,-11.45604 1.552043,-5.15625 3.5069426,-10.21875 4.3442216,-11.25 0.837278,-1.03125 1.880431,-3.38438 2.318116,-5.229188 0.437685,-1.844802 1.904192,-3.70598 3.258906,-4.13595 2.128242,-0.675477 2.359664,-1.53652 1.70219,-6.333312 C 18.65614,85.544405 18.86914,83.75 19.830095,83.75 20.611042,83.75 21.25,83.222216 21.25,82.577147 c 0,-0.645068 1.6875,-3.020427 3.75,-5.278576 2.955477,-3.235834 3.771216,-5.304696 3.850134,-9.764647 C 29.246781,45.117951 30.22109,29.27891 31.267697,28.232302 31.945464,27.554536 32.5,25.9875 32.5,24.75 c 0,-1.2375 0.5625,-2.25 1.25,-2.25 0.6875,0 1.25,-1.03782 1.25,-2.306265 0,-2.904234 3.373489,-5.999049 7.722052,-7.084155 1.840881,-0.45936 3.651352,-1.628184 4.02327,-2.597389 C 47.117241,9.5429859 48.254991,8.75 49.273656,8.75 50.292321,8.75 51.5756,8.0165259 52.125388,7.1200575 55.391692,1.7941051 76.434295,-1.9080982 83.289825,1.637034 88.249202,4.2016281 95.24775,12.038418 97.464239,17.50917 c 0.972854,2.401206 2.082011,4.64708 2.464793,4.99083 0.382778,0.34375 1.393198,1.75 2.245378,3.125 4.82822,7.790422 6.69609,12.638585 7.80403,20.255781 0.67953,4.67182 1.84683,10.655279 2.594,13.296573 0.74717,2.641295 0.99084,6.978485 0.54148,9.6382 -0.74865,4.431247 -0.55256,4.902217 2.34375,5.629142 1.73841,0.436314 4.01523,2.097408 5.0596,3.691318 1.69257,2.583188 1.69459,3.307475 0.0186,6.667045 -1.19995,2.405345 -3.17398,4.053177 -5.45595,4.554382 -2.06468,0.453482 -3.84409,1.811637 -4.2108,3.213958 C 110.41187,94.320024 109.14467,95 106.34321,95 c -3.52605,0 -3.81731,0.292989 -3.10652,3.125 0.59312,2.36315 0.29418,3.125 -1.22618,3.125 -1.10578,0 -2.01051,0.82184 -2.01051,1.82631 0,2.59254 4.9931,6.91547 8.0482,6.96798 1.41724,0.0244 3.98305,0.84818 5.7018,1.83071 1.71875,0.98253 4.35873,1.80634 5.86662,1.83071 1.50789,0.0244 3.5018,1.12959 4.4309,2.45607 0.9291,1.32648 3.19868,2.79062 5.0435,3.25364 5.32925,1.33756 7.15898,6.65118 7.15898,20.79008 0,6.77677 -0.83175,17.51849 -1.84833,23.87046 -3.54054,22.1226 -1.08268,80.92404 3.38257,80.92404 0.53116,0 0.96576,1.16197 0.96576,2.58217 0,1.4202 0.54724,3.6047 1.21607,4.85445 0.66885,1.24974 1.85247,6.41589 2.63025,11.48033 0.77779,5.06442 1.90258,9.80954 2.49953,10.54469 0.59695,0.73515 1.98181,5.23515 3.07749,10 1.09566,4.76485 3.05508,10.48161 4.35427,12.70391 1.2992,2.2223 3.26178,8.39579 4.36129,13.71887 1.09951,5.32308 2.38994,9.97359 2.8676,10.33446 0.47767,0.36087 1.57162,1.92174 2.431,3.46862 3.92331,7.06195 4.78617,8.44819 6.25,10.04095 0.85937,0.93506 1.56739,3.20681 1.57336,5.04834 0.006,1.84151 0.3553,6.21456 0.77628,9.71787 0.72631,6.04433 0.57168,6.50762 -3.0273,9.07033 -2.3818,1.69598 -6.64868,2.99916 -11.46987,3.50307 -7.13617,0.74588 -7.72662,0.6132 -8.37935,-1.88282 -0.38621,-1.47688 -1.48035,-2.68524 -2.43141,-2.68524 -1.26957,0 -1.7343,-1.91049 -1.74835,-7.1875 -0.01,-3.95313 -0.61735,-8.03125 -1.3485,-9.0625 -1.88365,-2.65682 -0.5316,38.16798 1.48721,44.9062 2.27167,7.58212 0.55364,8.67672 -8.30046,5.28846 -8.12381,-3.10881 -10.97363,-3.34456 -12.86604,-1.06435 -0.74417,0.89667 -2.31865,7.50604 -3.49884,14.6875 -1.1802,7.18145 -2.60896,13.24469 -3.17502,13.47385 -0.56607,0.22918 -1.02921,3.0698 -1.02921,6.3125 0,3.24271 -0.60444,6.50028 -1.34319,7.23903 -0.80244,0.80243 -1.76461,12.10016 -2.38996,28.0625 -0.86972,22.20037 -1.48818,27.92962 -3.6568,33.87558 -1.43553,3.93595 -2.61005,8.29533 -2.61005,9.6875 0,1.39218 -0.5625,2.53123 -1.25,2.53123 -0.6875,0 -1.25,1.18061 -1.25,2.62359 0,1.44297 -0.78611,4.3961 -1.74691,6.5625 -0.960809,2.1664 -2.756739,8.01703 -3.990963,13.00141 -1.234222,4.98437 -2.757192,9.0625 -3.384378,9.0625 -2.342228,0 2.010548,21.33965 5.609338,27.5 3.731313,6.3872 6.251203,16.59712 7.249973,29.375 0.48364,6.1875 2.11408,15.75 3.6232,21.25 3.49755,12.74685 2.77132,21.4116 -1.94489,23.2047 -3.56562,1.35565 -15.578375,1.31014 -21.04037,-0.0797 z m -56.394989,-405 c 0.911709,-5.70151 -0.25976,-15 -1.889771,-15 -0.599632,0 -1.09024,-0.89063 -1.09024,-1.97916 0,-2.66778 -3.0104,-1.52994 -3.568339,1.34871 -0.756696,3.90413 2.715261,20.63045 4.282353,20.63045 0.806556,0 1.826255,-2.25 2.265997,-5 z"
       id="path3428"
       inkscape:connector-curvature="0" />
    <path
       style="fill:#fbc8c7"
       d="M 82.90982,638.31889 C 78.66647,637.52475 74.775845,636.45312 74.263986,635.9375 73.752127,635.42187 69.2397,635 64.236371,635 c -7.65856,0 -9.619162,-0.44917 -12.399542,-2.84076 l -3.302582,-2.84076 2.032577,-8.09674 c 2.415881,-9.62363 4.509025,-15.31697 6.010501,-16.34854 0.601842,-0.41347 1.640965,-6.31972 2.309159,-13.125 2.292848,-23.35165 2.597128,-25.4982 3.614447,-25.4982 1.530853,0 6.249069,-14.87289 6.249069,-19.69849 0,-3.93358 -4.445359,-16.40682 -6.34431,-17.80151 -0.468036,-0.34375 -1.888588,-4 -3.15678,-8.125 -1.268191,-4.125 -2.613826,-7.78125 -2.9903,-8.125 -4.430984,-4.04585 -7.437414,-25.70748 -8.067201,-58.125 -0.53969,-27.77992 -2.37515,-49.97196 -4.3354,-52.41811 -0.58703,-0.73254 -1.458224,-3.16002 -1.935988,-5.39439 -0.477762,-2.23438 -1.117276,-4.0625 -1.421141,-4.0625 -0.303864,0 -2.74351,1.44995 -5.421434,3.22212 -4.732464,3.13179 -4.962067,3.16111 -8.190567,1.04572 -2.53643,-1.66194 -3.114169,-2.79295 -2.444047,-4.78463 0.482663,-1.43451 1.36054,-12.73321 1.95084,-25.10821 0.870009,-18.23883 0.721304,-24.20633 -0.785199,-31.5098 C 24.547891,330.22354 23.75,319.69779 23.75,310.84831 c 0,-15.96332 -1.572749,-28.2527 -3.791134,-29.62373 -1.529402,-0.94523 -5.54095,-11.64737 -6.718346,-17.92342 -0.469591,-2.50314 -1.334906,-4.55116 -1.922922,-4.55116 -0.588015,0 -1.6278695,-2.95313 -2.3107866,-6.5625 C 7.717445,245.3729 5.9676604,239.9653 2.6363484,232.5 -1.3647161,223.53381 -0.31361629,132.43942 3.8399666,128.1875 c 0.6380184,-0.65312 1.1634988,-2.34063 1.1677343,-3.75 0.00424,-1.40937 0.7688205,-4.02108 1.6990777,-5.80379 0.9302574,-1.78272 2.0772805,-5.29834 2.5489405,-7.8125 0.4716599,-2.51417 1.3728939,-4.57121 2.0027419,-4.57121 0.629849,0 1.741907,-2.21608 2.47124,-4.92461 0.852344,-3.165369 2.250767,-5.218109 3.914561,-5.746177 2.196285,-0.697074 2.464757,-1.481174 1.771823,-5.174824 -0.711678,-3.793573 -0.170343,-5.191035 4.21049,-10.869406 l 5.027166,-6.516142 0.668254,-19.785625 C 29.910105,35.820506 31.522352,24.474531 33.689144,22.5 34.066365,22.15625 35.21875,20.232599 36.25,18.22522 c 1.061089,-2.06546 3.502824,-4.179804 5.625,-4.870791 2.0625,-0.671556 4.199826,-1.982281 4.749612,-2.912721 C 47.1744,9.5112688 48.196306,8.75 48.895515,8.75 c 0.69921,0 3.202479,-1.4729896 5.562821,-3.2733101 C 59.23316,1.8347535 74.279142,-1.0794037 80.389624,0.45422938 85.211949,1.6645559 94.33598,10.592318 97.034544,16.741097 98.27378,19.564744 101.10928,24.6875 103.33565,28.125 c 2.22638,3.4375 4.62186,8.78125 5.32329,11.875 3.19145,14.07621 4.3156,21.121343 4.38801,27.5 0.069,6.077524 0.39328,6.91989 2.7956,7.261996 1.49465,0.212848 3.58516,1.71113 4.64556,3.329516 1.7363,2.649928 1.73664,3.326147 0.003,6.800505 -1.15569,2.316684 -2.89009,3.857983 -4.34131,3.857983 -1.32919,0 -3.63943,1.40625 -5.13387,3.125 -1.49443,1.71875 -4.05986,3.125 -5.70096,3.125 -2.44869,0 -2.83652,0.464091 -2.16251,2.587716 0.62184,1.959249 0.18693,2.753614 -1.79077,3.270784 -1.436636,0.3757 -2.61207,1.09783 -2.61207,1.60476 0,2.17443 6.37241,7.54047 9.00281,7.58103 1.57971,0.0244 4.27844,0.84818 5.99719,1.83071 1.71875,0.98253 4.35873,1.80634 5.86662,1.83071 1.50789,0.0244 3.5018,1.12959 4.4309,2.45607 0.9291,1.32648 3.23103,2.79874 5.11539,3.27168 5.08616,1.27655 7.08709,7.30655 7.08709,21.35765 0,6.45469 -0.83451,16.93288 -1.85449,23.28485 -3.42795,21.34803 -1.3001,76.79815 3.10539,80.92404 1.05366,0.98678 3.66805,11.11801 5.16105,20 0.75116,4.46875 2.09461,9.5426 2.98545,11.27521 0.89082,1.73263 2.22222,6.40968 2.95866,10.39346 0.73645,3.98378 2.39086,8.75368 3.67649,10.59978 2.4951,3.58287 5.21745,13.07701 5.21745,18.19579 0,1.70895 0.70312,3.87225 1.5625,4.80731 0.85937,0.93506 2.26562,2.944 3.125,4.46429 0.85937,1.52028 2.26562,4.00804 3.125,5.52832 0.85937,1.52029 2.26562,3.52923 3.125,4.46429 0.85937,0.93506 1.56739,3.20681 1.57336,5.04834 0.006,1.84151 0.3553,6.21456 0.77628,9.71787 0.73065,6.08037 0.5875,6.49635 -3.15177,9.15894 -2.72363,1.9394 -6.23667,2.93694 -11.52978,3.2739 -6.73723,0.4289 -7.68648,0.2022 -8.25489,-1.97144 -0.35325,-1.35083 -1.42043,-2.45606 -2.37149,-2.45606 -1.26957,0 -1.7343,-1.91049 -1.74835,-7.1875 -0.01,-3.95313 -0.61735,-8.03125 -1.3485,-9.0625 -1.88365,-2.65682 -0.5316,38.16798 1.48721,44.9062 2.03655,6.79736 0.43157,8.67544 -5.06893,5.93142 -5.87207,-2.92937 -14.27142,-3.90768 -15.9707,-1.86017 -0.77099,0.92898 -2.31896,6.97524 -3.43995,13.43612 -1.12098,6.46091 -2.77085,13.20157 -3.66638,14.97926 -2.22636,4.41949 -3.16979,13.87981 -4.33747,43.49408 -0.56057,14.21693 -1.57013,25.96719 -2.30906,26.875 -1.18246,1.45274 -3.09603,7.60448 -6.63893,21.34283 -0.67085,2.60136 -1.72722,5.69511 -2.34749,6.875 -0.620272,1.1799 -2.08364,5.94864 -3.251929,10.5972 -1.16829,4.64856 -2.622441,8.75987 -3.231447,9.13626 -1.428499,0.88286 -1.447029,10.17929 -0.02205,11.05998 0.596881,0.36888 1.443168,3.35521 1.880637,6.63627 0.437468,3.28105 1.991868,7.92896 3.45422,10.3287 3.493089,5.73217 7.329909,22.05231 7.329909,31.1782 0,4.06744 1.16828,10.76385 2.65767,15.23331 3.02492,9.07742 3.76211,23.93057 1.30944,26.38323 -2.058,2.058 -17.549906,2.36207 -27.30729,0.536 z M 30.480011,233.75 c 0.911709,-5.70151 -0.25976,-15 -1.889771,-15 -0.599632,0 -1.09024,-0.89063 -1.09024,-1.97916 0,-2.66778 -3.0104,-1.52994 -3.568339,1.34871 -0.756696,3.90413 2.715261,20.63045 4.282353,20.63045 0.806556,0 1.826255,-2.25 2.265997,-5 z"
       id="path3426"
       inkscape:connector-curvature="0" />
    <path
       style="fill:#fcc0be"
       d="m 82.90982,638.25808 c -4.24335,-0.76069 -8.133975,-1.80496 -8.645834,-2.32058 -0.511859,-0.51563 -4.915027,-0.9403 -9.78482,-0.94371 -7.310259,-0.005 -9.469011,-0.49824 -12.380247,-2.82796 l -3.52608,-2.82176 2.13575,-8.73453 c 1.174662,-4.804 2.620773,-9.26891 3.213581,-9.92204 C 54.514976,610.03437 55,608.53437 55,607.35416 c 0,-1.1802 0.597795,-2.3451 1.328432,-2.58863 0.730639,-0.24356 1.878449,-6.05606 2.550692,-12.91668 2.274007,-23.20756 2.600583,-25.59885 3.496003,-25.59885 2.310429,0 5.673303,-11.09528 5.710461,-18.84076 0.03611,-7.52786 -2.699113,-16.31938 -5.811609,-18.67956 -0.468062,-0.35493 -1.825909,-4.1518 -3.017438,-8.4375 C 58.065011,516.00648 56.619845,512.5 56.045061,512.5 55.470277,512.5 55,511.4875 55,510.25 c 0,-1.2375 -0.516986,-2.78438 -1.14886,-3.4375 -2.627835,-2.71621 -4.224356,-18.10905 -5.17944,-49.9375 -1.090446,-36.33941 -2.313596,-48.76015 -5.702918,-57.91153 -1.189291,-3.21116 -2.25303,-5.98208 -2.363865,-6.15761 -0.110837,-0.17552 -2.487683,0.93313 -5.281886,2.46366 -4.596775,2.5179 -5.396943,2.61337 -8.406135,1.0029 -2.558966,-1.36952 -3.126414,-2.36986 -2.461131,-4.33866 1.76339,-5.2185 3.020041,-46.90477 1.652725,-54.82505 C 25.374179,332.85517 24.338996,319.8125 23.808084,308.125 22.83651,286.73681 22.444452,284.42117 18.844117,278.806 16.605567,275.31469 13.817645,267.79374 13.726406,265 13.692728,263.96875 12.578344,260.875 11.25,258.125 9.9216556,255.375 8.8122766,251.71875 8.7847132,250 8.75715,248.28125 7.8943136,245.26382 6.8672991,243.29461 5.8402846,241.3254 5,239.0212 5,238.17416 5,237.32713 4.0205106,234.71955 2.823357,232.37955 0.96377841,228.74475 0.58018119,223.48187 0.18996775,196.25 -0.26368942,164.59057 1.563535,130.51784 3.8399666,128.1875 4.477985,127.53438 5,125.73945 5,124.19877 c 0,-1.54067 0.5246561,-3.12548 1.1659026,-3.52179 0.6412464,-0.39632 1.8061265,-3.80451 2.5886223,-7.57378 0.7824957,-3.76926 1.9236581,-6.8532 2.5359171,-6.8532 0.612259,0 1.701698,-2.18552 2.420977,-4.85672 0.870047,-3.231108 2.18291,-5.085574 3.922339,-5.540445 2.272752,-0.594338 2.508867,-1.3093 1.806102,-5.468929 C 18.817737,86.701591 19.157075,85.025532 20.912176,83.11185 26.405081,77.122633 28.75,72.56244 28.75,67.869538 c 0,-2.678247 0.663634,-5.533172 1.474743,-6.34428 1.132988,-1.132989 1.098207,-2.178304 -0.150093,-4.510774 -1.029645,-1.923908 -1.324245,-4.794945 -0.804243,-7.837758 0.451327,-2.64095 1.303061,-9.51297 1.892741,-15.271156 0.58968,-5.758186 1.55358,-10.820686 2.141998,-11.25 0.58842,-0.429314 1.913604,-2.422971 2.944854,-4.43035 1.05954,-2.062446 3.50592,-4.182611 5.625,-4.87493 2.0625,-0.673832 4.03125,-1.562682 4.375,-1.97522 C 47.580432,9.7784021 54.959866,5 56.095217,5 56.753265,5 57.495444,4.3886703 57.744504,3.6414895 58.349937,1.8251881 76.004451,-0.64637879 80.433172,0.46515947 85.50323,1.7376629 94.449082,10.908904 97.410228,17.869948 c 1.402597,3.29722 3.900052,7.79722 5.549892,9.999999 1.64984,2.202779 3.3816,5.411303 3.84836,7.130053 0.46676,1.71875 1.30774,4.25 1.86886,5.625 1.70149,4.169456 4.17465,19.571987 4.31528,26.875 0.11663,6.057329 0.45559,6.921028 2.84993,7.261996 1.49465,0.212848 3.58516,1.71113 4.64556,3.329516 1.7363,2.649928 1.73664,3.326147 0.003,6.800505 -1.15569,2.316684 -2.89009,3.857983 -4.34131,3.857983 -1.32919,0 -3.63943,1.40625 -5.13387,3.125 -1.49443,1.71875 -4.05986,3.125 -5.70096,3.125 -2.44869,0 -2.83652,0.464091 -2.16251,2.587716 0.62184,1.959249 0.18693,2.753614 -1.79077,3.270784 -3.221311,0.8424 -3.222198,1.02373 -0.027,5.51104 1.72926,2.42851 3.695,3.64512 5.9375,3.67475 1.84382,0.0244 4.75864,0.84818 6.47739,1.83071 1.71875,0.98253 4.37083,1.80634 5.89352,1.83071 1.52269,0.0244 3.34613,1.12357 4.0521,2.44269 0.70598,1.31912 2.8832,2.74973 4.83828,3.17914 5.55672,1.22046 7.7161,7.19625 7.7161,21.35332 0,6.51533 -0.82139,17.04313 -1.82531,23.3951 -3.52698,22.31563 -1.5089,77.77891 2.94437,80.92104 1.04496,0.73729 3.28153,9.45242 5.71385,22.26495 0.954,5.02533 2.28615,9.80658 2.96034,10.625 0.67417,0.81842 1.82787,4.75885 2.56379,8.7565 0.73591,3.99765 2.38988,8.7789 3.67551,10.625 2.4951,3.58287 5.21745,13.07701 5.21745,18.19579 0,1.70895 0.7377,3.8505 1.63934,4.75897 0.90163,0.90849 2.4452,3.47992 3.43015,5.71429 0.98493,2.23438 2.21597,4.0625 2.73565,4.0625 0.51967,0 0.94486,0.84375 0.94486,1.875 0,1.03125 0.5246,1.875 1.16576,1.875 1.58005,0 2.25729,2.78319 3.22999,13.27375 0.82506,8.89848 0.82496,8.89885 -3.05122,11.65894 -2.68098,1.90902 -6.22383,2.90964 -11.48894,3.24481 -6.73723,0.4289 -7.68648,0.2022 -8.25489,-1.97144 -0.35325,-1.35083 -1.42043,-2.45606 -2.37149,-2.45606 -1.26957,0 -1.7343,-1.91049 -1.74835,-7.1875 -0.0217,-8.14014 -1.64107,-12.36485 -2.91537,-7.60566 -1.26904,4.73955 -0.92545,25.82766 0.43451,26.66816 0.6875,0.4249 1.25314,3.41122 1.25697,6.63627 0.004,3.22505 0.61139,8.04054 1.35013,10.70109 1.75201,6.30979 0.2062,8.00063 -4.95875,5.424 -5.57193,-2.77963 -13.6459,-3.90199 -15.71528,-2.18456 -0.95175,0.78989 -2.38386,5.48325 -3.18245,10.42968 -0.79859,4.94643 -2.47852,12.08727 -3.73317,15.86852 -3.05371,9.20319 -3.65631,14.84366 -4.85339,45.42937 -0.60298,15.40642 -1.54698,26.38976 -2.30986,26.875 -0.70956,0.45134 -1.69411,2.78938 -2.18787,5.19563 -1.00097,4.878 -3.93497,14.59133 -6.41876,21.25 -0.897571,2.40625 -2.524811,8.02622 -3.616091,12.48884 -1.09128,4.4626 -2.523546,8.65322 -3.182813,9.3125 -1.48988,1.48987 -1.586817,10.31122 -0.12325,11.21576 0.59148,0.36556 1.432664,3.27104 1.869298,6.45664 0.436635,3.18558 2.179999,8.40407 3.874141,11.59662 3.698265,6.96925 5.537335,15.41879 6.918745,31.78798 0.5678,6.72834 1.58093,12.91584 2.25138,13.75 2.16389,2.69226 4.11385,14.9774 3.27023,20.60307 -0.63737,4.25028 -1.4998,5.72709 -3.87102,6.62863 -3.85988,1.46752 -14.992702,1.20814 -24.978371,-0.58197 z M 30.480011,233.75 c 0.911709,-5.70151 -0.25976,-15 -1.889771,-15 -0.599632,0 -1.09024,-0.89063 -1.09024,-1.97916 0,-2.66778 -3.0104,-1.52994 -3.568339,1.34871 -0.756696,3.90413 2.715261,20.63045 4.282353,20.63045 0.806556,0 1.826255,-2.25 2.265997,-5 z"
       id="path3424"
       inkscape:connector-curvature="0" />
    <path
       style="fill:#fab6b5"
       d="m 82.90982,638.25808 c -4.24335,-0.76069 -8.133975,-1.80496 -8.645834,-2.32058 -0.511859,-0.51563 -4.915027,-0.9403 -9.78482,-0.94371 -7.299011,-0.005 -9.468222,-0.4991 -12.350251,-2.8125 l -3.496086,-2.80629 1.999883,-8.125 c 1.099935,-4.46875 3.166254,-10.48213 4.591818,-13.36305 1.61709,-3.26799 3.019831,-9.6148 3.729632,-16.875 2.156349,-22.05628 2.530151,-24.76195 3.420965,-24.76195 2.295219,0 5.673312,-11.09179 5.710461,-18.75 0.03692,-7.61294 -3.325828,-18.75 -5.661428,-18.75 -0.464598,0 -1.811158,-3.44435 -2.992356,-7.65411 -1.1812,-4.20977 -3.186294,-9.50336 -4.455764,-11.76355 -4.006005,-7.13235 -5.280203,-17.75305 -6.29347,-52.45734 -1.055731,-36.15869 -2.289811,-48.66659 -5.713788,-57.91153 -1.189291,-3.21116 -2.280356,-6.00941 -2.42459,-6.21833 -0.144233,-0.20892 -2.153806,0.77335 -4.465717,2.18282 -4.958686,3.02311 -7.082736,3.15075 -10.422294,0.62628 -2.071944,-1.56625 -2.224224,-2.25792 -0.94728,-4.30263 2.219245,-3.55357 2.766664,-59.27312 0.603599,-61.43789 C 24.220827,328.7212 23.75,323.2918 23.75,311.79561 23.75,293.51651 22.423506,284.20304 19.096966,279.1261 16.65886,275.40507 13.822581,267.94486 13.726406,265 13.692728,263.96875 12.578344,260.875 11.25,258.125 9.9216556,255.375 8.8122766,251.71875 8.7847132,250 8.75715,248.28125 7.8943136,245.26382 6.8672991,243.29461 5.8402846,241.3254 5,239.0212 5,238.17416 5,237.32713 4.0205106,234.71955 2.823357,232.37955 0.96377841,228.74475 0.58018119,223.48187 0.18996775,196.25 -0.26368942,164.59057 1.563535,130.51784 3.8399666,128.1875 4.477985,127.53438 5,125.73945 5,124.19877 c 0,-1.54067 0.5246561,-3.12548 1.1659026,-3.52179 0.6412464,-0.39632 1.7960034,-3.75575 2.5661267,-7.46541 0.7701232,-3.70967 2.2142167,-7.05721 3.2090977,-7.43898 0.99488,-0.38177 1.817487,-1.97741 1.828014,-3.54586 0.02363,-3.519026 1.169518,-5.280371 4.152766,-6.38316 1.885465,-0.696981 2.154732,-1.690604 1.503203,-5.546972 -0.606238,-3.58829 -0.255005,-5.285273 1.487066,-7.184748 C 26.405081,77.122633 28.75,72.56244 28.75,67.869538 c 0,-2.678247 0.68904,-5.558578 1.531199,-6.400737 1.208266,-1.208266 1.208266,-2.048298 0,-3.98304 -1.762098,-2.821567 -2.058584,-10.762276 -0.439204,-11.763109 0.600596,-0.371188 1.345956,-5.513506 1.656355,-11.42737 0.310399,-5.913865 1.084626,-11.127736 1.720505,-11.586381 0.63588,-0.458646 1.999895,-2.481349 3.031145,-4.494895 1.12213,-2.190992 3.33796,-4.051877 5.518459,-4.634477 2.003902,-0.535416 3.972652,-1.419219 4.375,-1.964007 C 47.371476,9.9527599 54.821935,5 56.095217,5 56.753265,5 57.495444,4.3886703 57.744504,3.6414895 58.349937,1.8251881 76.004451,-0.64637879 80.433172,0.46515947 85.50323,1.7376629 94.449082,10.908904 97.410228,17.869948 c 1.402597,3.29722 3.900052,7.79722 5.549892,9.999999 1.64984,2.202779 3.3816,5.411303 3.84836,7.130053 0.46676,1.71875 1.30774,4.25 1.86886,5.625 1.70149,4.169456 4.17465,19.571987 4.31528,26.875 0.11398,5.919846 0.48739,6.925811 2.68766,7.240731 1.4054,0.201153 3.43662,1.818268 4.51382,3.59359 1.72224,2.838399 1.74223,3.661483 0.16567,6.821768 -0.98608,1.976651 -2.79454,3.593911 -4.01879,3.593911 -1.22426,0 -3.74329,1.40625 -5.59785,3.125 -1.85457,1.71875 -4.50586,3.125 -5.89177,3.125 -1.95098,0 -2.34071,0.564366 -1.72636,2.5 0.43641,1.375 0.33369,2.50861 -0.22826,2.51914 -0.56196,0.0105 -1.77671,0.49764 -2.69945,1.08248 -1.403619,0.88961 -1.403619,1.55019 0,4.04336 0.92274,1.63901 1.79604,3.1921 1.94066,3.4513 0.14462,0.25921 2.39462,0.91833 5,1.46473 7.15105,1.49969 13.15875,3.99922 17.12877,7.12649 1.96373,1.54688 4.51539,2.8125 5.67034,2.8125 6.10523,0 8.20081,20.5821 4.48763,44.07596 -3.63597,23.00519 -1.40707,80.92404 3.1142,80.92404 0.50998,0 1.32501,2.67187 1.81116,5.9375 0.48615,3.26562 1.31892,6.5 1.85061,7.1875 0.53168,0.6875 1.34783,4.24582 1.81365,7.90739 0.46584,3.66156 1.94693,9.44801 3.29133,12.85877 1.3444,3.41076 2.44436,7.34101 2.44436,8.73388 0,1.39286 1.7035,6.06457 3.78554,10.38157 2.08205,4.31699 4.13428,10.7936 4.56051,14.39247 0.42624,3.59884 1.41837,7.2032 2.20475,8.00964 0.78637,0.80645 2.17739,3.2944 3.09114,5.52878 0.91375,2.23437 2.15562,4.0625 2.75971,4.0625 0.60409,0 1.09835,0.60268 1.09835,1.33929 0,0.7366 0.76244,2.10172 1.6943,3.03359 0.94169,0.94168 2.0874,6.03228 2.57925,11.46002 0.821,9.06005 0.69001,9.92358 -1.81262,11.9501 -5.90255,4.77959 -20.15798,5.97735 -20.99008,1.76361 -0.22229,-1.12564 -1.20666,-2.04661 -2.1875,-2.04661 -1.33547,0 -1.78816,-1.80506 -1.80249,-7.1875 -0.0223,-8.33925 -1.82217,-12.74715 -3.11,-7.61603 -1.48358,5.91107 0.90062,35.65 3.70627,46.22967 1.15687,4.36235 -0.81012,5.40256 -5.87579,3.1073 -5.4763,-2.48133 -11.62611,-3.63448 -14.50682,-2.72018 -1.85626,0.58915 -2.67867,2.81599 -3.84303,10.40565 -1.37213,8.94401 -2.49145,13.23198 -5.13099,19.65609 -1.59262,3.87612 -2.56116,15.3393 -3.55443,42.06884 -0.53518,14.40182 -1.47462,25.26452 -2.27019,26.25 -0.74646,0.92464 -1.73616,3.64991 -2.19934,6.05616 -0.46317,2.40625 -1.32124,5.5 -1.90681,6.875 -1.19062,2.79574 -6.473394,20.55482 -8.840687,29.7197 -0.848088,3.28334 -2.027317,6.26966 -2.62051,6.63627 -1.407598,0.86994 -1.401948,10.1716 0.0068,11.0422 0.596881,0.36889 1.467037,3.54885 1.933678,7.06657 0.466643,3.51771 2.148743,8.45566 3.738,10.97321 3.428079,5.43041 5.543559,15.08154 6.969429,31.79539 0.57399,6.72834 1.59218,12.91584 2.26264,13.75 2.16389,2.69226 4.11385,14.9774 3.27023,20.60307 -0.63737,4.25028 -1.49981,5.72709 -3.87102,6.62863 -3.85988,1.46752 -14.992709,1.20814 -24.978377,-0.58197 z M 30.480011,233.75 c 0.911709,-5.70151 -0.25976,-15 -1.889771,-15 -0.599632,0 -1.09024,-0.89063 -1.09024,-1.97916 0,-2.66778 -3.0104,-1.52994 -3.568339,1.34871 -0.756696,3.90413 2.715261,20.63045 4.282353,20.63045 0.806556,0 1.826255,-2.25 2.265997,-5 z"
       id="path3422"
       inkscape:connector-curvature="0" />
    <path
       style="fill:#faa9a7"
       d="m 82.5,637.8591 c -4.46875,-1.01359 -12.371133,-2.21216 -17.560849,-2.6635 -11.200161,-0.97404 -16.851382,-3.90239 -15.659113,-8.11425 0.421352,-1.48849 1.387682,-5.4848 2.147398,-8.88067 0.759717,-3.39588 2.489685,-8.14771 3.844375,-10.55962 1.591619,-2.83375 2.881715,-8.60989 3.646321,-16.32567 2.267124,-22.87795 2.568813,-25.06539 3.456995,-25.06539 2.295219,0 5.673312,-11.09179 5.710461,-18.75 0.03695,-7.61634 -3.326132,-18.75 -5.663697,-18.75 -0.465844,0 -1.555497,-2.67188 -2.421454,-5.9375 -0.865956,-3.26563 -2.864898,-8.75 -4.442095,-12.1875 -4.863692,-10.60043 -5.900902,-18.79071 -6.885996,-54.375 -0.992691,-35.8587 -2.20224,-48.06571 -5.697474,-57.5 -1.146178,-3.09375 -2.220977,-5.79594 -2.388442,-6.00486 -0.167464,-0.20892 -2.196044,0.77335 -4.507955,2.18282 -4.93799,3.0105 -7.084835,3.14971 -10.359987,0.67184 -2.030738,-1.5364 -2.175762,-2.26214 -0.928756,-4.64775 2.172797,-4.15671 2.641873,-59.01459 0.522768,-61.13706 -1.091609,-1.09335 -1.5625,-6.52387 -1.5625,-18.01938 0,-18.45956 -1.376871,-27.91269 -4.782371,-32.83411 -1.269826,-1.83508 -3.268609,-6.83426 -4.441739,-11.10931 -1.17313,-4.27504 -2.949156,-9.33754 -3.946726,-11.25 C 9.581595,254.68974 8.758471,251.71875 8.75,250 8.741529,248.28125 7.8943136,245.26382 6.8672991,243.29461 5.8402846,241.3254 5,239.0212 5,238.17416 5,237.32713 4.015625,234.71955 2.8125,232.37955 0.85124591,228.56504 0.63191695,223.72936 0.69187775,185.625 c 0.0453595,-28.82539 0.56784635,-44.91316 1.62386365,-50 0.8563421,-4.125 1.8744655,-9.04687 2.2624963,-10.9375 0.3880309,-1.89062 1.1309832,-3.4375 1.6510049,-3.4375 0.5200219,0 1.5989898,-3.32165 2.3977064,-7.38145 0.8373961,-4.25641 2.229265,-7.67964 3.287632,-8.08577 1.00948,-0.38738 1.844033,-1.9876 1.85456,-3.55605 0.02363,-3.519026 1.169518,-5.280371 4.152766,-6.38316 1.885465,-0.696981 2.154732,-1.690604 1.503203,-5.546972 -0.606238,-3.58829 -0.255005,-5.285273 1.487066,-7.184748 C 26.405081,77.122633 28.75,72.56244 28.75,67.869538 c 0,-2.678247 0.68904,-5.558578 1.531199,-6.400737 1.208266,-1.208266 1.208266,-2.048298 0,-3.98304 C 28.437957,54.534262 28.252341,46.705112 30,45.625 c 0.6875,-0.424899 1.25,-4.547355 1.25,-9.161015 0,-10.736369 4.921872,-21.386771 10.583167,-22.900835 1.968313,-0.526407 3.907944,-1.40284 4.310292,-1.947628 C 47.371476,9.9527599 54.821935,5 56.095217,5 56.753265,5 57.495444,4.3886703 57.744504,3.6414895 58.335588,1.8682379 75.956489,-0.65841662 80.237952,0.41616226 84.853286,1.5745372 94.839469,11.918232 97.631989,18.432917 c 1.28063,2.987588 3.678291,7.23425 5.328131,9.43703 1.64984,2.202779 3.3816,5.411303 3.84836,7.130053 0.46676,1.71875 1.30774,4.25 1.86886,5.625 1.894,4.641196 4.22937,19.954747 4.05745,26.605614 -0.15195,5.878659 0.15576,6.729749 2.79609,7.733601 1.63176,0.620395 3.84215,2.377675 4.91198,3.905069 1.78925,2.55451 1.74244,3.06174 -0.58398,6.328897 -1.39101,1.9535 -3.25243,3.551819 -4.13647,3.551819 -0.88404,0 -3.12472,1.40625 -4.97928,3.125 -1.85457,1.71875 -4.50586,3.125 -5.89177,3.125 -1.95099,0 -2.34071,0.564366 -1.72636,2.5 0.43641,1.375 0.33369,2.50861 -0.22827,2.51914 -0.56195,0.0105 -1.7767,0.49764 -2.69944,1.08248 -1.403619,0.88961 -1.403619,1.55019 0,4.04336 2.21889,3.94128 3.5485,4.81297 7.3763,4.83588 1.75922,0.0105 4.29047,0.845 5.625,1.85439 1.33452,1.00938 3.47021,1.85313 4.74596,1.875 1.27576,0.0219 3.99079,1.446 6.03341,3.16475 2.04261,1.71875 4.52271,3.125 5.51131,3.125 0.98862,0 2.9121,1.82813 4.27443,4.0625 3.09832,5.08162 3.37379,21.24961 0.671,39.38322 -2.49943,16.76912 -2.36464,60.3304 0.22334,72.17928 1.05111,4.8125 2.28118,9.03125 2.7335,9.375 0.82807,0.62934 2.27482,6.48599 5.86612,23.74699 1.07246,5.15458 2.47055,9.9993 3.10688,10.76601 0.63631,0.76672 1.75823,4.64674 2.49315,8.62226 0.73491,3.97553 2.41843,8.69333 3.74115,10.48399 1.32272,1.79066 3.02712,6.63075 3.78756,10.75575 1.44986,7.86481 6.37191,18.98007 10.30421,23.26954 2.35036,2.56386 5.44644,19.49087 4.17231,22.81117 -1.04548,2.72452 -9.84079,6.25628 -16.14637,6.48356 -4.77521,0.17214 -6.05005,-0.23316 -6.64674,-2.11314 -0.40605,-1.27937 -1.54412,-2.32613 -2.52905,-2.32613 -1.34451,0 -1.79554,-1.79111 -1.8099,-7.1875 -0.0208,-7.79465 -1.52162,-12.1152 -2.93191,-8.44008 -1.30184,3.39254 -0.91728,27.9069 0.45105,28.75258 0.6875,0.4249 1.25314,3.12997 1.25697,6.01127 0.004,2.8813 0.61139,7.41554 1.35013,10.07609 1.75244,6.31133 0.22106,7.91794 -4.98234,5.22715 -2.15187,-1.11277 -6.8372,-2.14501 -10.41182,-2.29387 l -6.49933,-0.27064 -1.5639,8.75 c -1.57557,8.81531 -3.57942,16.63486 -5.44554,21.25 -1.57842,3.9036 -2.5485,15.43814 -3.5381,42.06884 -0.57483,15.46889 -1.44883,25.21447 -2.3597,26.31201 -0.7957,0.95875 -1.82453,4.1059 -2.28631,6.99366 C 106.30829,497.63729 105.51176,500 105,500 c -0.51176,0 -1.30829,2.36271 -1.77006,5.25049 -0.46178,2.88776 -1.30376,5.84089 -1.87107,6.5625 -0.56731,0.7216 -1.710796,4.40576 -2.541079,8.18701 -0.830282,3.78125 -2.653834,9.82087 -4.052336,13.42139 -1.598541,4.11551 -2.292841,8.06088 -1.86977,10.625 1.473514,8.9305 4.128912,18.0487 6.466125,22.20361 3.3057,5.8766 5.59347,16.68341 6.84813,32.34867 0.57149,7.13552 1.58645,13.32302 2.25546,13.75 2.04636,1.30604 4.16272,14.06843 3.29381,19.86274 -0.63737,4.25028 -1.4998,5.72709 -3.87102,6.62863 -4.29698,1.63371 -15.824325,1.18832 -25.38819,-0.98094 z M 30.480011,233.75 c 0.911709,-5.70151 -0.25976,-15 -1.889771,-15 -0.599632,0 -1.09024,-0.89063 -1.09024,-1.97916 0,-2.66778 -3.0104,-1.52994 -3.568339,1.34871 -0.756696,3.90413 2.715261,20.63045 4.282353,20.63045 0.806556,0 1.826255,-2.25 2.265997,-5 z"
       id="path3420"
       inkscape:connector-curvature="0" />
    <path
       style="fill:#fa9491"
       d="M 83.125,637.87031 C 79,636.83987 71.097036,635.63189 65.562859,635.1859 53.71454,634.23105 48.047693,631.40829 49.292563,627.08135 c 0.428242,-1.48849 1.40276,-5.65948 2.165594,-9.26885 0.762837,-3.60938 1.871819,-6.5625 2.464408,-6.5625 C 54.515155,611.25 55,610.2375 55,609 c 0,-1.2375 0.641765,-2.89176 1.426144,-3.67615 0.78438,-0.78437 1.927102,-6.94375 2.539382,-13.6875 1.933693,-21.29795 2.490968,-25.38635 3.460318,-25.38635 2.369094,0 5.694142,-10.91725 5.696589,-18.70381 0.0024,-7.68553 -3.381224,-18.79619 -5.724183,-18.79619 -0.478847,0 -1.866314,-3.67835 -3.083259,-8.1741 -1.216945,-4.49576 -2.685659,-8.46646 -3.263809,-8.82378 C 55.473032,511.39481 55,510.01065 55,508.67623 55,507.3418 54.536784,506.25 53.970631,506.25 c -2.656357,0 -4.349252,-17.37016 -4.872997,-50 -0.303467,-18.90625 -1.068329,-34.90938 -1.699695,-35.5625 -0.631367,-0.65312 -1.16169,-3.18438 -1.178497,-5.625 -0.04845,-7.0354 -2.449722,-16.40425 -5.718461,-22.31125 -0.11375,-0.20557 -2.258869,0.7788 -4.766922,2.1875 -5.359723,3.01038 -6.78592,3.1045 -10.015571,0.66105 -2.034792,-1.53946 -2.176817,-2.25737 -0.919464,-4.64775 2.057886,-3.91229 2.662928,-60.67071 0.660212,-61.934 C 24.533184,328.4339 23.869995,320.99084 23.541945,307.5 23.053516,287.41371 22.937846,286.66277 19.113439,278.75 16.9536,274.28125 14.527009,268.09375 13.721014,265 c -0.805997,-3.09375 -1.977783,-6.25096 -2.60397,-7.01601 -0.626187,-0.76506 -1.7417028,-4.70256 -2.4789234,-8.75 C 7.9008999,245.18654 6.7807325,241.34062 6.1488596,240.6875 5.5169869,240.03437 5,238.20625 5,236.625 5,235.04375 4.4952434,233.75 3.8783188,233.75 -1.2291293,233.75 -1.2674974,134.65465 3.8379306,129.4375 4.4770687,128.78437 5,127.3018 5,126.14289 c 0,-1.15892 0.8402846,-3.71829 1.8672991,-5.68751 1.0270145,-1.96921 1.8707645,-5.0514 1.875,-6.84931 0.00424,-1.79791 1.0593969,-4.61041 2.3448029,-6.25 1.285406,-1.63959 2.708662,-4.68313 3.162791,-6.76343 0.477316,-2.186519 1.996386,-4.296105 3.600397,-5.000001 2.33434,-1.024389 2.710379,-2.037024 2.369366,-6.380478 -0.317866,-4.04865 0.221656,-5.817019 2.5,-8.194132 4.493568,-4.68837 6.030344,-8.06528 6.030344,-13.251068 0,-2.621828 0.659741,-5.426702 1.466093,-6.233054 1.121457,-1.121457 1.121457,-2.222486 0,-4.683816 C 28.424088,52.917069 28.288174,46.25 30,46.25 c 0.711194,0 1.25,-3.676161 1.25,-8.528484 0,-6.917554 0.706509,-9.986985 3.740354,-16.25 C 37.587961,16.109064 39.442532,13.75 41.060601,13.75 c 1.281442,0 4.908286,-1.96875 8.059656,-4.375 C 52.271629,6.96875 55.399392,5 56.070844,5 56.742296,5 57.495444,4.3886703 57.744504,3.6414895 58.323026,1.9059204 75.92852,-0.67102719 80.025409,0.38019359 83.3462,1.2322755 93.75,10.417776 93.75,12.497616 c 0,0.688812 0.50152,1.252384 1.11449,1.252384 0.61297,0 1.44865,1.3314 1.857068,2.958666 0.408418,1.627266 2.762801,5.895554 5.231962,9.485083 2.46916,3.58953 4.80083,8.44563 5.18149,10.791334 0.38065,2.345704 1.181,4.264917 1.77854,4.264917 0.59755,0 1.08645,1.85057 1.08645,4.112376 0,2.261808 0.84515,7.357125 1.87811,11.322929 1.11245,4.270983 1.55875,9.207749 1.09473,12.10953 -0.70721,4.422681 -0.47672,5.015566 2.37075,6.098174 1.73477,0.659557 4.02944,2.448881 5.09927,3.976275 1.78925,2.55451 1.74244,3.06174 -0.58398,6.328897 -1.39101,1.9535 -3.31265,3.551819 -4.2703,3.551819 -0.95766,0 -2.74748,1.045719 -3.97739,2.32382 -1.2299,1.2781 -3.81502,2.703087 -5.74471,3.166639 -2.68676,0.645416 -3.33729,1.38232 -2.77745,3.146225 0.52162,1.643471 -0.0273,2.501733 -1.91605,2.995646 -5.233295,1.36854 -0.0821,9.61767 6.00579,9.61767 2.52702,0 7.82879,2.24525 15.32123,6.4884 1.03125,0.58402 3.68967,1.89623 5.90761,2.91602 2.21795,1.01979 4.88983,3.51179 5.9375,5.53779 2.4742,4.78456 2.51675,22.20904 0.094,38.50351 -2.68836,18.08114 -2.30957,61.88613 0.63496,73.42928 4.51862,17.7138 5.16019,20.05031 6.17824,22.5 0.57143,1.375 1.70129,6.15625 2.5108,10.625 0.80951,4.46875 1.9863,8.75096 2.61509,9.51601 0.62877,0.76506 1.75347,4.69211 2.49932,8.72676 0.74585,4.03467 2.70749,9.64175 4.35922,12.46019 1.65172,2.81845 3.36271,7.89142 3.8022,11.27325 0.52401,4.03223 2.84452,9.6579 6.74131,16.34306 4.93809,8.47161 6.08912,11.65692 6.81146,18.84963 0.81981,8.16341 0.70338,8.76277 -2.04876,10.54549 -6.91829,4.48136 -19.33988,5.67597 -20.51641,1.97311 -0.38224,-1.20313 -1.50085,-2.1875 -2.48578,-2.1875 -1.33401,0 -1.79076,-1.72745 -1.79076,-6.77276 0,-7.27187 -0.84836,-10.72724 -2.63374,-10.72724 -1.43294,0 -1.47189,29.63267 -0.0401,30.51756 0.59188,0.3658 1.37815,4.19588 1.74725,8.51128 0.36911,4.31538 1.00392,8.68991 1.41071,9.72116 1.1151,2.82689 -1.15444,5.77181 -3.20135,4.15405 -0.91178,-0.72061 -4.88505,-2.30609 -8.8295,-3.52328 -9.14672,-2.82252 -10.15666,-2.01225 -12.06881,9.68292 -1.39113,8.50851 -2.92004,14.46782 -5.21102,20.31131 -1.55191,3.95837 -2.52483,15.62785 -3.50738,42.06884 -0.53517,14.40182 -1.47461,25.26452 -2.27018,26.25 -0.74644,0.92464 -1.76834,3.64991 -2.27086,6.05616 -0.50252,2.40625 -1.34763,4.9375 -1.87801,5.625 -0.53038,0.6875 -1.35812,3.63767 -1.83943,6.55595 -0.4813,2.91827 -1.3508,5.59995 -1.93223,5.9593 -0.58142,0.35934 -1.690109,3.87791 -2.463744,7.81905 -0.773635,3.94114 -2.549221,9.91801 -3.945747,13.28196 -3.498597,8.4274 -1.665083,22.05751 4.536016,33.72018 1.593015,2.99605 3.266625,8.17733 3.719125,11.51396 0.4525,3.33664 1.28237,6.64777 1.84415,7.3581 0.56178,0.71032 1.3136,6.63525 1.67071,13.1665 0.3743,6.84582 1.44937,13.46316 2.53846,15.625 4.66126,9.25257 3.55543,23.3651 -1.9464,24.83965 -4.72549,1.26649 -16.159584,0.62743 -24.0529,-1.34434 z M 30.480011,233.75 c 0.911709,-5.70151 -0.25976,-15 -1.889771,-15 -0.599632,0 -1.09024,-0.89063 -1.09024,-1.97916 0,-2.66778 -3.0104,-1.52994 -3.568339,1.34871 -0.756696,3.90413 2.715261,20.63045 4.282353,20.63045 0.806556,0 1.826255,-2.25 2.265997,-5 z"
       id="path3418"
       inkscape:connector-curvature="0" />
  </g>
</svg>
